<svg width="60" height="60" fill="none" xmlns="http://www.w3.org/2000/svg"><path d="M36.608 30L59.042 7.566A3.265 3.265 0 0060 5.246c0-.88-.34-1.704-.959-2.32L57.076.96a3.254 3.254 0 00-2.322-.958c-.878 0-1.702.339-2.32.958L30.001 23.392 7.567.96a3.252 3.252 0 00-2.32-.958 3.25 3.25 0 00-2.32.958L.96 2.925a3.284 3.284 0 000 4.64L23.394 30 .96 52.433a3.262 3.262 0 00-.958 2.321c0 .879.34 1.702.958 2.32l1.966 1.966a3.254 3.254 0 002.32.958c.879 0 1.703-.34 2.32-.958L30 36.607 52.434 59.04a3.255 3.255 0 002.32.958c.88 0 1.703-.34 2.321-.958l1.966-1.965a3.261 3.261 0 00.958-2.321c0-.879-.341-1.703-.958-2.32L36.608 30z" fill="#fff"/></svg>