<svg width="35" height="35" fill="none" xmlns="http://www.w3.org/2000/svg"><path d="M17.491 35h.018C27.169 35 35 27.169 35 17.509V17.5C35 7.835 27.165 0 17.5 0S0 7.835 0 17.5v.009C0 27.169 7.831 35 17.491 35z" fill="#252125"/><path d="M17.5 10.143c2.396 0 2.68.01 3.626.053.875.04 1.35.186 1.666.309.42.162.718.357 1.032.67.314.315.509.614.672 1.033.123.316.269.791.309 1.666.043.946.052 1.23.052 3.626s-.01 2.68-.052 3.627c-.04.874-.186 1.35-.31 1.666a2.78 2.78 0 01-.67 1.032 2.779 2.779 0 01-1.032.671c-.317.123-.792.27-1.667.309-.946.043-1.23.052-3.626.052s-2.68-.009-3.626-.052c-.875-.04-1.35-.186-1.667-.309a2.778 2.778 0 01-1.031-.671 2.78 2.78 0 01-.672-1.032c-.123-.316-.269-.792-.309-1.666-.043-.947-.052-1.23-.052-3.627 0-2.396.01-2.68.052-3.626.04-.875.186-1.35.31-1.666a2.76 2.76 0 01.67-1.032 2.778 2.778 0 011.032-.671c.317-.123.792-.27 1.667-.31.946-.043 1.23-.052 3.626-.052zm0-1.617c-2.437 0-2.743.01-3.7.054-.955.044-1.607.196-2.178.417a4.4 4.4 0 00-1.59 1.035c-.499.5-.806 1-1.035 1.59-.222.57-.373 1.223-.417 2.178-.044.957-.054 1.263-.054 3.7 0 2.438.01 2.743.054 3.7.044.956.195 1.608.417 2.179a4.4 4.4 0 001.035 1.59c.5.498 1 .805 1.59 1.034.57.222 1.223.374 2.178.417.957.044 1.263.054 3.7.054 2.437 0 2.743-.01 3.7-.054.955-.043 1.607-.195 2.178-.417a4.4 4.4 0 001.59-1.035c.499-.499.805-1 1.035-1.59.221-.57.373-1.223.417-2.178.044-.957.054-1.262.054-3.7 0-2.437-.01-2.742-.054-3.7-.044-.955-.196-1.607-.417-2.178a4.399 4.399 0 00-1.035-1.59c-.5-.498-1-.805-1.59-1.035-.57-.221-1.223-.373-2.178-.417-.957-.043-1.263-.054-3.7-.054z" fill="#fff"/><path d="M17.5 12.892a4.608 4.608 0 100 9.216 4.608 4.608 0 000-9.216zm0 7.6a2.991 2.991 0 110-5.984 2.991 2.991 0 010 5.983zm4.79-6.705a1.077 1.077 0 100-2.154 1.077 1.077 0 000 2.154z" fill="#fff"/></svg>