<svg width="25" height="25" fill="none" xmlns="http://www.w3.org/2000/svg"><g clip-path="url(#clip0)" fill="#BDBDBD"><path d="M19.277 10.753a2.6 2.6 0 00-2.298-1.378H8.02a2.6 2.6 0 00-2.298 1.378l-3.334 6.25c-.2.377-.306.8-.306 1.226v3.646c0 1.149.935 2.083 2.084 2.083h16.666a2.086 2.086 0 002.083-2.083v-3.646c0-.425-.106-.849-.306-1.226l-3.333-6.25zm2.598 11.122c0 .574-.467 1.041-1.042 1.041H4.167a1.043 1.043 0 01-1.042-1.041v-3.646c0-.255.064-.51.184-.735l3.334-6.25c.271-.51.8-.828 1.378-.828h8.958a1.56 1.56 0 011.378.828l3.334 6.249c.12.226.184.481.184.736v3.646z"/><path d="M9.374 14.583a1.042 1.042 0 100-2.083 1.042 1.042 0 000 2.083zm0 3.125a1.042 1.042 0 100-2.083 1.042 1.042 0 000 2.083zm0 3.125a1.042 1.042 0 100-2.083 1.042 1.042 0 000 2.083zm3.126 0a1.042 1.042 0 100-2.083 1.042 1.042 0 000 2.083zm3.124 0a1.042 1.042 0 100-2.083 1.042 1.042 0 000 2.083zM12.5 17.708a1.042 1.042 0 100-2.083 1.042 1.042 0 000 2.083zm3.124 0a1.042 1.042 0 100-2.083 1.042 1.042 0 000 2.083zM12.5 14.583a1.042 1.042 0 100-2.083 1.042 1.042 0 000 2.083zm3.124 0a1.042 1.042 0 100-2.083 1.042 1.042 0 000 2.083zM24.572 6.3C21.35 2.91 17.062 1.042 12.5 1.042 7.938 1.042 3.65 2.91.427 6.3A1.57 1.57 0 000 7.383c0 .392.143.783.427 1.082l2.4 2.526c.566.593 1.567.593 2.132 0a10.568 10.568 0 012.709-2.067c.497-.256.819-.796.814-1.306l.363-2.737c2.617-.838 4.718-.837 7.31 0l.358 2.668c0 .578.306 1.105.806 1.38a10.574 10.574 0 012.715 2.069c.282.297.66.46 1.066.46a1.46 1.46 0 001.065-.46l2.407-2.533c.275-.289.419-.665.428-1.044a1.573 1.573 0 00-.428-1.121zm-.754 1.447l-2.408 2.534a.43.43 0 01-.621-.001 11.614 11.614 0 00-2.975-2.268c-.163-.09-.26-.262-.264-.531l-.406-3.061a.521.521 0 00-.347-.425c-1.52-.52-2.901-.78-4.287-.78-1.385 0-2.773.26-4.306.78a.52.52 0 00-.348.425l-.41 3.13a.51.51 0 01-.26.45 11.624 11.624 0 00-2.982 2.273.433.433 0 01-.621 0L1.182 7.747a.541.541 0 010-.729c3.025-3.182 7.044-4.934 11.317-4.934 4.274 0 8.293 1.752 11.319 4.934a.541.541 0 010 .73z"/></g><defs><clipPath id="clip0"><path fill="#fff" d="M0 0h25v25H0z"/></clipPath></defs></svg>