<svg width="30" height="30" fill="none" xmlns="http://www.w3.org/2000/svg"><g clip-path="url(#clip0)" fill="#BDBDBD"><path d="M23.133 12.904a3.12 3.12 0 00-2.758-1.654H9.626a3.12 3.12 0 00-2.757 1.654l-4 7.5a3.14 3.14 0 00-.368 1.47v4.376c0 1.378 1.122 2.5 2.5 2.5h20c1.378 0 2.5-1.122 2.5-2.5v-4.375a3.15 3.15 0 00-.368-1.471l-4-7.5zM26.25 26.25c0 .689-.56 1.25-1.25 1.25H5c-.689 0-1.25-.561-1.25-1.25v-4.375c0-.306.078-.612.222-.883l4-7.5a1.87 1.87 0 011.654-.992h10.75c.693 0 1.327.38 1.653.992l4 7.5c.145.271.221.577.221.883v4.375z"/><path d="M11.25 17.5a1.25 1.25 0 100-2.5 1.25 1.25 0 000 2.5zm0 3.75a1.25 1.25 0 100-2.5 1.25 1.25 0 000 2.5zm0 3.75a1.25 1.25 0 100-2.5 1.25 1.25 0 000 2.5zM15 25a1.25 1.25 0 10.001-2.5 1.25 1.25 0 000 2.5zm3.75 0a1.25 1.25 0 100-2.5 1.25 1.25 0 000 2.5zM15 21.25a1.25 1.25 0 10.001-2.5 1.25 1.25 0 000 2.5zm3.75 0a1.25 1.25 0 100-2.5 1.25 1.25 0 000 2.5zM15 17.5a1.25 1.25 0 10.001-2.5 1.25 1.25 0 000 2.5zm3.75 0a1.25 1.25 0 100-2.5 1.25 1.25 0 000 2.5zm10.738-9.94C25.619 3.49 20.474 1.25 15 1.25 9.527 1.25 4.381 3.491.514 7.56.174 7.918 0 8.388 0 8.859c0 .47.172.94.513 1.298l2.88 3.032c.678.712 1.88.712 2.558 0a12.679 12.679 0 013.25-2.48c.597-.308.983-.956.978-1.568l.435-3.285c3.14-1.004 5.661-1.004 8.772 0l.43 3.203c0 .693.367 1.325.967 1.655a12.713 12.713 0 013.258 2.483c.338.357.792.553 1.278.553s.94-.196 1.279-.553l2.889-3.039c.33-.347.502-.798.512-1.254a1.887 1.887 0 00-.512-1.344zm-.906 1.736l-2.89 3.04a.516.516 0 01-.745 0 13.939 13.939 0 00-3.57-2.722c-.194-.107-.31-.315-.316-.638l-.487-3.673a.625.625 0 00-.417-.509c-1.823-.624-3.481-.936-5.143-.936s-3.329.312-5.168.936a.625.625 0 00-.418.51l-.493 3.755a.611.611 0 01-.311.542 13.949 13.949 0 00-3.578 2.726.52.52 0 01-.746 0l-2.88-3.03a.65.65 0 010-.876C5.05 4.603 9.871 2.5 15 2.5s9.952 2.103 13.582 5.922a.65.65 0 010 .874z"/></g><defs><clipPath id="clip0"><path fill="#fff" d="M0 0h30v30H0z"/></clipPath></defs></svg>