<svg width="50" height="50" fill="none" xmlns="http://www.w3.org/2000/svg"><path d="M25 0C11.193 0 0 11.196 0 25.006 0 38.81 11.187 50 24.988 50h.024C38.812 50 50 38.81 50 25.006 50 11.196 38.807 0 25 0z" fill="#65ABD3"/><path d="M35.454 14.764l-23.745 8.993c-1.299.376-1.257 1.659-.297 1.967l5.95 1.858 2.276 6.98c.277.765.503 1.053.975 1.06.497.006.687-.175 1.203-.632a290.96 290.96 0 002.978-2.873l6.188 4.573c1.14.629 1.961.303 2.245-1.058l3.88-19.197c.416-1.668-.564-2.165-1.653-1.67zm-17.159 12.39l13.527-8.488c.666-.447.875.052.574.396L21.17 29.163l-.576 5.042-2.299-7.05z" fill="#fff"/></svg>