<svg width="30" height="30" fill="none" xmlns="http://www.w3.org/2000/svg"><g clip-path="url(#clip0)" fill="#BDBDBD"><path d="M15.001 15c-4.135 0-7.5-3.364-7.5-7.5S10.866 0 15 0s7.5 3.365 7.5 7.5c0 4.136-3.365 7.5-7.5 7.5zm0-13.125A5.631 5.631 0 009.376 7.5 5.631 5.631 0 0015 13.125 5.631 5.631 0 0020.626 7.5a5.631 5.631 0 00-5.625-5.625zM27.188 30H2.813a.937.937 0 01-.937-.938V22.61c0-.969.495-1.879 1.292-2.377 7.04-4.392 16.632-4.39 23.665 0 .798.498 1.293 1.408 1.293 2.377v6.453c0 .519-.42.938-.938.938zM3.751 28.125h22.5v-5.516a.925.925 0 00-.411-.788c-6.437-4.018-15.236-4.02-21.679.001-.253.158-.41.46-.41.787v5.516z"/></g><defs><clipPath id="clip0"><path fill="#fff" d="M0 0h30v30H0z"/></clipPath></defs></svg>