<svg width="25" height="25" fill="none" xmlns="http://www.w3.org/2000/svg"><g clip-path="url(#clip0)" fill="#BDBDBD"><path d="M12.5 12.5a6.257 6.257 0 01-6.25-6.25A6.257 6.257 0 0112.5 0a6.257 6.257 0 016.25 6.25 6.257 6.257 0 01-6.25 6.25zm0-10.937A4.693 4.693 0 007.813 6.25a4.693 4.693 0 004.687 4.688 4.693 4.693 0 004.688-4.688A4.693 4.693 0 0012.5 1.563zM22.656 25H2.344a.78.78 0 01-.781-.782V18.84c0-.807.412-1.565 1.076-1.98 5.867-3.66 13.86-3.66 19.721 0a2.344 2.344 0 011.078 1.98v5.378a.78.78 0 01-.782.782zM3.125 23.437h18.75V18.84a.77.77 0 00-.343-.656c-5.364-3.348-12.696-3.35-18.065.001a.77.77 0 00-.342.656v4.596z"/></g><defs><clipPath id="clip0"><path fill="#fff" d="M0 0h25v25H0z"/></clipPath></defs></svg>