<svg width="50" height="50" fill="none" xmlns="http://www.w3.org/2000/svg"><path d="M25 0C11.193 0 0 11.196 0 25.006 0 38.81 11.187 50 24.988 50h.024C38.812 50 50 38.81 50 25.006 50 11.196 38.807 0 25 0z" fill="#71519A"/><path d="M33.983 15.104c-.966-.826-2.1-1.325-3.317-1.643a23.75 23.75 0 00-9.288-.574c-1.587.215-3.12.635-4.532 1.426-1.656.93-2.796 2.27-3.3 4.128-.36 1.325-.534 2.673-.603 4.04-.1 2.015-.035 4.017.48 5.983.598 2.275 1.895 3.951 4.118 4.843.243.098.47.231.712.332.223.092.291.24.29.48-.011 1.574-.006 3.148-.006 4.792.584-.564.987-.979 1.28-1.31.876-.99 1.704-1.814 2.617-2.755.463-.478.269-.454.986-.443.845.014 2.172.047 3.012-.018 1.602-.126 3.19-.33 4.735-.794 1.963-.59 3.535-1.64 4.333-3.626.212-.527.415-1.056.55-1.609.766-3.159.663-6.324.023-9.485-.298-1.468-.926-2.773-2.09-3.767zm-9.755 1.915c.016-.304.19-.421.477-.408 2.437.117 4.272.841 5.683 2.741.827 1.114 1.274 2.617 1.319 4.014 0 .207.009.415-.003.622-.013.23-.114.407-.373.41-.263.003-.391-.14-.409-.406-.068-1.029-.267-2.03-.66-2.988-.762-1.854-2.222-2.853-4.098-3.336a8.992 8.992 0 00-1.51-.274c-.232-.019-.443-.068-.426-.375zm2.459 2.59a8.089 8.089 0 00-1.519-.39c-.252-.036-.432-.17-.386-.465.044-.277.226-.388.492-.363 1.701.162 3.03.781 3.945 2.255.428.69.68 1.666.642 2.398-.027.52-.106.653-.403.645-.431-.012-.368-.367-.4-.628a8.166 8.166 0 00-.248-1.184c-.315-1.123-1.02-1.882-2.123-2.269zm1.44 2.869c-.017.144-.018.243-.04.338-.046.19-.162.304-.369.307-.21.003-.322-.12-.377-.3-.037-.125-.047-.258-.072-.386-.132-.686-.524-1.135-1.205-1.318-.084-.023-.171-.035-.255-.058-.215-.06-.482-.064-.491-.379-.008-.26.19-.415.548-.437.243-.015.62.105.837.21.895.438 1.314 1.052 1.424 2.023zm3.58 7.225c-.472 1.07-1.28 1.776-2.41 2.096-.41.116-.808.016-1.183-.143-5.157-2.196-8.884-5.82-10.995-11.05-.152-.377-.24-.77-.227-1.13.003-1.347 1.184-2.592 2.48-2.664.357-.02.667.102.925.344a9.816 9.816 0 012.177 2.969c.29.61.169 1.041-.353 1.48-.084.07-.174.131-.263.195-.693.508-.848 1.026-.517 1.826.544 1.312 1.43 2.34 2.624 3.103.451.288.912.56 1.432.712.475.138.857-.01 1.163-.386.035-.042.066-.087.098-.131.665-.921 1.377-1.08 2.34-.482a19.282 19.282 0 012.346 1.73c.5.427.629.93.364 1.53z" fill="#fff"/></svg>