<svg width="50" height="50" fill="none" xmlns="http://www.w3.org/2000/svg"><path d="M25 0C11.193 0 0 11.196 0 25.006 0 38.81 11.187 50 24.988 50h.024C38.812 50 50 38.81 50 25.006 50 11.196 38.807 0 25 0z" fill="#68A84C"/><path fill-rule="evenodd" clip-rule="evenodd" d="M25.23 12.2c-6.885 0-12.466 5.583-12.466 12.47 0 2.356.653 4.56 1.788 6.44l-2.25 6.69 6.903-2.21a12.416 12.416 0 006.025 1.55c6.886 0 12.468-5.583 12.468-12.47 0-6.887-5.582-12.47-12.468-12.47zm0 22.851a10.32 10.32 0 01-5.71-1.716l-3.988 1.277 1.296-3.855a10.328 10.328 0 01-1.976-6.087c0-5.724 4.656-10.381 10.378-10.381 5.723 0 10.379 4.657 10.379 10.382 0 5.724-4.656 10.38-10.379 10.38zm5.846-7.547c-.313-.171-1.848-1-2.136-1.117-.288-.117-.498-.178-.722.133-.224.31-.861 1.004-1.054 1.21-.194.205-.38.224-.693.053-.312-.17-1.325-.546-2.5-1.675-.914-.88-1.514-1.946-1.688-2.271-.174-.326 0-.492.164-.644.149-.138.333-.36.499-.54.165-.18.224-.31.338-.519.114-.208.068-.396-.006-.558-.073-.162-.651-1.753-.892-2.4-.242-.647-.51-.55-.696-.558-.186-.006-.397-.041-.61-.05a1.17 1.17 0 00-.863.367c-.303.308-1.154 1.047-1.213 2.613-.059 1.566 1.025 3.123 1.176 3.34.151.219 2.069 3.614 5.256 5.01 3.187 1.396 3.204.97 3.789.94.585-.032 1.912-.7 2.205-1.434.293-.732.317-1.37.242-1.506-.075-.135-.284-.223-.596-.394z" fill="#fff"/></svg>