<svg width="134" height="134" fill="none" xmlns="http://www.w3.org/2000/svg"><path d="M17.867 84.956v8.04h4.466v-.447H18.27V89.2h3.707v-.446H18.27v-3.35h4.064v-.447h-4.466zm5.94 1.876c-.044.492.134.938.492 1.206.446.358.982.58 1.518.626.358.089.67.178.938.223.268.09.536.223.76.402.268.134.446.402.58.67.134.313.224.67.179 1.027 0 .626-.313 1.206-.76 1.519a3.019 3.019 0 01-1.741.58 3.41 3.41 0 01-1.474-.357 2.184 2.184 0 01-1.028-1.072l.358-.223c.223.402.491.67.893.849.402.223.849.312 1.295.312.492 0 .983-.134 1.385-.402s.67-.76.715-1.25a3.47 3.47 0 00-.09-.715c-.134-.402-.446-.76-.804-.893a3.099 3.099 0 00-.58-.224c-.179-.044-.402-.134-.67-.178-.313-.09-.626-.18-.849-.224a2.265 2.265 0 01-.715-.402c-.268-.134-.446-.402-.536-.67-.134-.312-.178-.625-.178-.982 0-.581.268-1.117.714-1.474a2.842 2.842 0 011.698-.536c.491 0 1.027.134 1.474.357.402.223.759.58.982 1.027l-.357.179a1.948 1.948 0 00-.849-.849c-.848-.402-1.831-.357-2.68.09-.402.402-.625.848-.67 1.384zm10.497-1.876v.447h-2.457v7.638h-.402v-7.638H28.99v-.447h5.315zm1.519 4.288v3.797h-.402v-8.085h.402v3.841h4.466v-3.84h.402v8.084h-.402v-3.797h-4.466zm7.057-3.841v3.35h3.707v.446H42.88v3.35h4.02v.447h-4.422v-8.04H46.9v.447h-4.02zm10.05-.447v.447h-2.457v7.638h-.402v-7.638h-2.456v-.447h5.315zm1.519 0h-.402v8.085h.402v-8.085zm1.608 5.896v-3.618c-.045-.67.268-1.34.804-1.697a3.156 3.156 0 011.876-.626c.491 0 .982.134 1.429.313.402.178.76.536.938.983l-.357.223c-.224-.358-.492-.626-.849-.76-.357-.178-.804-.312-1.206-.267-.536 0-1.117.133-1.563.49a1.74 1.74 0 00-.67 1.385v3.618c0 .537.223 1.073.67 1.385a2.814 2.814 0 001.563.491c.402 0 .849-.089 1.206-.268.357-.178.625-.446.849-.759l.357.224c-.223.402-.536.759-.938.982-.447.224-.938.358-1.43.313-.67 0-1.295-.224-1.875-.626-.492-.49-.804-1.116-.804-1.786zm11.166-5.896h2.546c.626 0 1.251.179 1.742.58.447.403.715 1.028.715 1.698v3.573c.045.626-.223 1.296-.715 1.653a2.82 2.82 0 01-1.742.58h-2.546v-8.084zm.402 7.638h2.144a2.49 2.49 0 001.474-.447c.358-.312.581-.804.536-1.34v-3.573c.045-.536-.178-1.027-.536-1.385a2.493 2.493 0 00-1.474-.446h-2.144v7.191zm6.655-7.191v3.35h3.708v.446h-3.707v3.35h4.064v.447H73.88v-8.04h4.42v.447h-4.02zm5.941-.447l4.244 7.549v-7.549h.402v8.085h-.581l-4.154-7.37v7.37h-.402v-8.085h.491zm11.033 0v.447h-2.457v7.638h-.402v-7.638H85.94v-.447h5.315zm1.519 0h-.402v8.085h.402v-8.085zm1.876 1.876c-.045.492.134.938.491 1.206.447.358.983.58 1.519.626.357.089.67.178.938.223.268.09.536.223.759.402.268.134.447.402.58.67.135.313.224.67.18 1.027 0 .626-.313 1.206-.76 1.519a3.019 3.019 0 01-1.742.58 3.41 3.41 0 01-1.474-.357 2.184 2.184 0 01-1.027-1.072l.357-.223c.223.402.491.67.893.849.402.223.849.312 1.296.312.491 0 .982-.134 1.384-.402.402-.268.67-.76.715-1.25 0-.268-.045-.492-.09-.715-.133-.402-.446-.76-.803-.893a3.1 3.1 0 00-.581-.224c-.179-.044-.402-.134-.67-.178-.313-.09-.625-.18-.849-.224a2.265 2.265 0 01-.714-.402c-.268-.134-.447-.402-.536-.67-.134-.312-.179-.625-.179-.982 0-.581.268-1.117.715-1.474a2.842 2.842 0 011.697-.536c.491 0 1.027.134 1.474.357.402.223.76.58.983 1.027l-.358.179a1.947 1.947 0 00-.848-.849c-.849-.402-1.832-.357-2.68.09a1.73 1.73 0 00-.67 1.384zm10.496-1.876v.447h-2.456v7.638h-.402v-7.638H99.83v-.447h5.315zm5.986 8.084h-.492l-2.456-3.528h-1.519v3.528h-.402v-8.084h2.68c.625-.045 1.206.178 1.697.58.447.403.715 1.028.67 1.698 0 .804-.223 1.43-.625 1.742a2.462 2.462 0 01-1.742.536h-.223l2.412 3.528zm-4.467-3.886h2.278c.536.045 1.027-.133 1.474-.446.313-.268.491-.76.491-1.474 0-1.25-.67-1.876-1.92-1.831h-2.278v3.751h-.045zm7.861.716v3.171h-.402V89.87L111.667 85h.491l2.189 4.467L116.535 85h.492l-2.502 4.869zM51.143 62.042v12.373h-4.422V44.756h4.422v12.417h11.971V44.756h4.377v29.659h-4.377V62.042h-11.97zM83.66 74.415h-4.42V62.89l-9.336-18.135h5.048l6.476 13.49 6.477-13.49h5.137l-9.38 18.135v11.524z" fill="#8297A4"/><path d="M114.704 59.362c0 1.295-.223 2.59-.715 3.752-.446 1.161-1.116 2.233-1.92 3.171a8.78 8.78 0 01-2.859 2.1 7.162 7.162 0 01-3.439.76h-5.896l2.948-3.262h2.948c.804 0 1.563-.178 2.322-.49.715-.314 1.34-.805 1.876-1.43.536-.626.938-1.296 1.296-2.055.312-.804.446-1.653.491-2.501a6.94 6.94 0 00-.491-2.502c-.626-1.563-1.742-2.769-3.172-3.484a5.638 5.638 0 00-2.278-.49h-2.948l-2.948-3.262h5.896a8.38 8.38 0 013.44.76 9.103 9.103 0 012.814 2.1c.804.937 1.474 1.964 1.92 3.17.492 1.162.715 2.412.715 3.663zm10.318 2.769l3.663 7.013h-3.395l-5.137-9.827 2.636.045c.759 0 1.518-.357 2.054-.983a3.434 3.434 0 00.894-2.322c0-.849-.313-1.698-.894-2.278-.536-.626-1.295-.983-2.054-.983h-5.941l-.313-.357-1.518-2.904h7.816c3.261-.044 5.896 2.86 5.896 6.432v.09c0 1.295-.357 2.59-1.027 3.662-.715 1.072-1.608 1.876-2.68 2.412z" fill="#5BC5C5"/><path d="M100.455 40.87v5.584h1.608v-3.797h30.329v33.41h-30.329v-3.885h-1.608v5.627H134V40.87h-33.545zm-76.067 9.47l-2.501-5.54-10.899 24.12 2.457 5.45 10.943-24.03z" fill="#5BC5C5"/><path d="M5.003 44.711H0l8.442 18.537 2.501-5.539-5.94-12.998zm19.385 5.539l-.715 1.653.715-1.653zm14.427-5.539l-8.442 18.582-3.439-7.504-2.546 5.494 5.985 13.087 13.445-29.659h-5.003z" fill="#8297A4"/></svg>