<svg width="25" height="25" fill="none" xmlns="http://www.w3.org/2000/svg"><path d="M12.5 0C7.654 0 3.71 3.943 3.71 8.79a8.77 8.77 0 001.313 4.62L12 24.655a.732.732 0 00.622.346h.006a.732.732 0 00.622-.356l6.8-11.352a8.779 8.779 0 001.24-4.503C21.29 3.943 17.345 0 12.5 0zm6.292 12.54l-6.181 10.32-6.343-10.22a7.315 7.315 0 01-1.102-3.85c0-4.039 3.295-7.334 7.334-7.334s7.33 3.295 7.33 7.334a7.318 7.318 0 01-1.038 3.75z" fill="url(#paint0_linear)"/><path d="M12.5 4.395a4.4 4.4 0 00-4.395 4.394 4.389 4.389 0 004.395 4.395 4.386 4.386 0 004.395-4.395A4.4 4.4 0 0012.5 4.395zm0 7.334a2.942 2.942 0 01-2.94-2.94 2.95 2.95 0 012.94-2.94 2.946 2.946 0 012.935 2.94 2.936 2.936 0 01-2.935 2.94z" fill="url(#paint1_linear)"/><defs><linearGradient id="paint0_linear" x1="12.5" y1="0" x2="13.333" y2="30.335" gradientUnits="userSpaceOnUse"><stop stop-color="#3AA2FF"/><stop offset="1" stop-color="#89D7F8"/></linearGradient><linearGradient id="paint1_linear" x1="12.5" y1="4.395" x2="12.706" y2="15.063" gradientUnits="userSpaceOnUse"><stop stop-color="#3AA2FF"/><stop offset="1" stop-color="#89D7F8"/></linearGradient></defs></svg>