<svg width="35" height="35" fill="none" xmlns="http://www.w3.org/2000/svg"><circle cx="17.5" cy="17.5" r="17.5" fill="url(#paint0_linear)"/><path fill-rule="evenodd" clip-rule="evenodd" d="M24.56 13.036a1.555 1.555 0 00-1.19-.526H11.98l-.114-.859c-.124-.926-.768-1.651-1.468-1.651h-.836a.469.469 0 100 .938h.836c.15 0 .47.317.538.837l1.342 10.064c.06.443.287.859.642 1.17.263.23.574.383.9.447A1.726 1.726 0 0015.337 26a1.726 1.726 0 001.533-2.51h2.456A1.726 1.726 0 0020.86 26a1.726 1.726 0 001.534-2.51h1.228a.469.469 0 000-.938h-9.456c-.458 0-.896-.383-.957-.837l-.098-.736h9.256c.447 0 .889-.17 1.244-.481.354-.31.582-.726.642-1.17l.672-5.043a1.555 1.555 0 00-.364-1.25zm-9.224 12.027a.787.787 0 000-1.573.787.787 0 000 1.573zm5.523 0a.787.787 0 000-1.573.787.787 0 000 1.573zm3.135-10.902l-.672 5.043c-.06.454-.498.838-.956.838h-9.38l-.88-6.594H23.37a.63.63 0 01.485.205.632.632 0 01.14.508z" fill="#fff"/><defs><linearGradient id="paint0_linear" x1="17.5" y1="0" x2="18.321" y2="42.485" gradientUnits="userSpaceOnUse"><stop stop-color="#3AA2FF"/><stop offset="1" stop-color="#89D7F8"/></linearGradient></defs></svg>