<svg width="160" height="165" fill="none" xmlns="http://www.w3.org/2000/svg"><path d="M8.421 26.046a5 5 0 015-5H146.58a5 5 0 015 5V160a5 5 0 01-5 5h-29.735a5.005 5.005 0 01-2.02-.426L82.02 150.085a5.002 5.002 0 00-4.04 0l-32.804 14.489a5.001 5.001 0 01-2.02.426H13.42a5 5 0 01-5-5V26.046z" fill="#F2F2F2"/><path d="M0 0h160v152.498a7.451 7.451 0 01-7.451 7.451h-30.985a7.443 7.443 0 01-2.996-.629l-35.572-15.619a7.453 7.453 0 00-5.992 0L41.432 159.32a7.445 7.445 0 01-2.996.629H7.451A7.451 7.451 0 010 152.498V0z" fill="#fff"/><path d="M8.03 8.038h143.94V145.2a6.95 6.95 0 01-6.951 6.951H117.8c-.963 0-1.916-.2-2.798-.588L83.2 137.578a7.95 7.95 0 00-6.401 0l-31.803 13.985a6.947 6.947 0 01-2.798.588H14.98a6.951 6.951 0 01-6.95-6.951V8.039z" fill="#fff" stroke="#F2F2F2"/><g clip-path="url(#clip0)"><path d="M135 89.44H25v16.331h110v-16.33z" fill="#AE0F0A"/><path d="M75.654 24.643l12.023 6.677L80 16l-4.346 8.643z" fill="#CCE6F3"/><path d="M57.6 60.672l18.29-17.86L87.676 31.32l-12.023-6.677L57.6 60.672z" fill="#99D0E2"/><path d="M95.35 46.625L75.696 43.01l11.981-11.69 7.673 15.306z" fill="#71B2D0"/><path d="M57.6 60.672l32.151 5.66L75.696 43.01 57.599 60.672z" fill="#409CD5"/><path d="M65.194 77.3L89.75 66.334 57.6 60.672 65.194 77.3z" fill="#56ABD3"/><path d="M80 85.158l15.06-7.857 7.341-16.63-37.207 16.63L80 85.158z" fill="#4388C7"/><path d="M102.401 60.672l-12.65 5.66L75.696 43.01l19.654 3.616 7.051 14.047z" fill="#4495C3"/><path d="M99.143 101.116a3.007 3.007 0 01-2.516 1.418 3.012 3.012 0 01-2.553-1.349 6.229 6.229 0 01-.922-3.584 6.812 6.812 0 01.76-3.386 2.788 2.788 0 012.553-1.572 3.002 3.002 0 012.765 1.608 6.972 6.972 0 01.816 3.575 5.845 5.845 0 01-.876 3.29h-.027zm1.009-7.595a4.56 4.56 0 00-3.687-1.686 4.371 4.371 0 00-3.562 1.778 6.219 6.219 0 00-1.34 3.988 6.085 6.085 0 001.382 4.016 4.574 4.574 0 003.65 1.769 4.512 4.512 0 003.489-1.622 5.685 5.685 0 001.451-3.938 6.477 6.477 0 00-1.42-4.305h.037zm-9.428-1.415H87.46l-.212.735h.198c.173.01.346.032.516.064.289.064.46.175.512.331a.378.378 0 010 .11c-.006.16-.049.318-.125.46-.124.22-.249.46-.378.652l-1.7 3.106-2.05-3.368a3.636 3.636 0 01-.291-.482.954.954 0 01-.143-.432.206.206 0 01.028-.124.487.487 0 01.378-.248c.175 0 .322-.037.46-.046h.401l-.138-.712H80.93l-.19.735h.264c.155.02.31.053.46.096.123.032.242.076.355.133.201.133.375.303.512.501 0 0 .106.18.29.46l2.687 4.475v2.541c.004.24-.013.48-.05.717a.547.547 0 01-.258.382 1.507 1.507 0 01-.531.179c-.18.036-.364.056-.548.059h-.24l.203.708h4.309l.138-.708h-.226a3.682 3.682 0 01-.544-.068 1.894 1.894 0 01-.516-.148.543.543 0 01-.281-.459 4.543 4.543 0 01-.055-.744v-2.477l2.22-4.062c.13-.234.245-.46.351-.625.104-.183.221-.358.35-.524a1.143 1.143 0 01.862-.46h.401l-.17-.757zm-10.6 10.269a4.83 4.83 0 01-.391-.101 1.377 1.377 0 01-.461-.211 6.163 6.163 0 01-.862-.988 78.955 78.955 0 01-1.087-1.498 20.82 20.82 0 00-.36-.515 9.853 9.853 0 00-.613-.762l-.562-.625.46-.037c.322-.014.636-.095.922-.239.415-.176.78-.45 1.065-.8a3.1 3.1 0 00.46-.804 2.4 2.4 0 00.176-.919 2.324 2.324 0 00-.212-.946 3.09 3.09 0 00-.627-.92 2.906 2.906 0 00-1.534-.835c-.458-.07-.92-.1-1.383-.088h-4.438l-.147.712h.184l.461.06c.161.016.318.063.461.138a.506.506 0 01.221.345c.035.186.052.375.05.565v7.117c0 .236-.008.457-.027.662a.511.511 0 01-.285.46c-.244.141-.52.219-.802.225h-.235l.235.735h4l.152-.735h-.35a2.652 2.652 0 01-.563-.051.857.857 0 01-.41-.184.744.744 0 01-.281-.556c-.04-.27-.06-.544-.06-.818v-7.857h1.751c.365-.005.73.028 1.088.097.28.052.538.19.737.395.18.191.319.418.406.666.09.257.135.528.133.8.009.489-.13.97-.4 1.378a1.843 1.843 0 01-.9.653c-.452.167-.931.25-1.414.243h-1.175l.336.712a1.6 1.6 0 01.263 0 .71.71 0 01.203.055c.274.246.521.52.737.818.272.35.6.777.972 1.282.176.244.35.46.521.708.17.248.341.459.516.749l1.115 1.627h1.954l.19-.736-.19.023zm-11.543-.087a3.747 3.747 0 01-.341-.092 1.904 1.904 0 01-.272-.106 2.03 2.03 0 01-.563-.436 7.736 7.736 0 01-.414-.597l-3.18-4.894 1.954-1.902c.276-.258.498-.46.664-.598.26-.232.549-.428.861-.583l.346-.152a.98.98 0 01.382-.073l.388-.037-.153-.712h-3.548l-.249.712.397.037c.157.017.312.054.46.11a.354.354 0 01.18.202c.042.124 0 .29-.198.496l-.54.524-3.548 3.428v-3.676c-.01-.225.009-.45.056-.67a.485.485 0 01.244-.276 1.64 1.64 0 01.811-.198h.226l-.226-.712h-3.687l-.138.712.189.037.369.05c.172.017.34.063.497.138a.46.46 0 01.217.29c.052.205.074.417.065.629v7.108c.005.24-.012.48-.051.717a.6.6 0 01-.286.391c-.12.073-.25.129-.387.165a1.41 1.41 0 01-.387.06h-.254l.226.708h3.687l.138-.708h-.226c-.145 0-.29-.024-.428-.069a1.554 1.554 0 01-.346-.147.557.557 0 01-.281-.46 4.64 4.64 0 01-.055-.749v-2.338l1.534-1.47 2.447 3.648.378.56c.235.363.318.602.254.708a.46.46 0 01-.254.174 6.37 6.37 0 01-.46.06l-.41.065.174.707h3.848l.203-.707-.313-.074z" fill="#fff"/><path d="M113.014 117.428h.115l.295 2.757.253 2.151h-1.225l.272-2.151.29-2.757zm1.461 10.013h2.765l-2.553-13.5h-3.226l-2.567 13.5h2.802l.405-2.638h1.987l.387 2.638zm-11.825-10.982h1.438v8.519h-2.199a3.63 3.63 0 00.411-1.213c.091-.543.15-1.091.175-1.641l.175-5.665zm2.88 10.982V130h2.175v-5.022h-1.028V113.95h-6.304l-.295 7.912a10.705 10.705 0 01-.193 1.622 3.152 3.152 0 01-.779 1.503l-.834.152v4.87h2.18v-2.559l5.078-.009zm-8.594-10.206c0-1.162-.282-2.021-.844-2.568-.562-.547-1.438-.827-2.617-.827a3.627 3.627 0 00-2.53.827c-.609.547-.922 1.406-.922 2.568v6.893c0 2.279 1.148 3.417 3.442 3.414a3.613 3.613 0 002.586-.832c.585-.556.875-1.42.875-2.582l.01-6.893zm-2.683 7.04a.812.812 0 01-.225.652.823.823 0 01-.553.184.885.885 0 01-.567-.184.794.794 0 01-.23-.652v-7.155a.796.796 0 01.23-.638.844.844 0 01.567-.198c.203-.007.4.064.553.198a.808.808 0 01.225.638v7.155zm-7.52-3.975c.252-.085.482-.224.672-.409.19-.177.346-.388.461-.62.121-.235.21-.486.263-.745.059-.264.088-.533.088-.804 0-1.246-.308-2.185-.922-2.816-.615-.631-1.52-.947-2.714-.947h-3.056v13.5h2.996c1.26 0 2.207-.34 2.843-1.02.636-.68.954-1.743.954-3.189 0-.308-.026-.615-.078-.919a3.361 3.361 0 00-.263-.822 2.348 2.348 0 00-.489-.671 2.026 2.026 0 00-.77-.46l.015-.078zm-.973 3.506a1.635 1.635 0 01-.166.584.955.955 0 01-.35.399 1.061 1.061 0 01-.59.147h-.46V121.6h.488a1.068 1.068 0 01.848.331c.219.343.318.749.281 1.154.001.241-.013.482-.041.721h-.01zm-1.235-4.65h-.331v-2.679h.271c.33-.025.656.068.922.262.233.3.338.68.29 1.057 0 .919-.387 1.378-1.166 1.378l.014-.018zm-12.58-1.691h.115l.295 2.757.249 2.15h-1.235l.276-2.15.3-2.757zm1.46 10.012h2.766l-2.586-13.499H70.36l-2.567 13.499h2.801L71 124.84h1.986l.42 2.637zm-13.391-13.536v7.623c0 .579 0 1.084-.032 1.511-.01.38-.076.756-.194 1.117-.109.318-.285.61-.516.855-.29.294-.624.541-.99.73l.893 1.999a5.849 5.849 0 001.636-.836c.411-.321.741-.733.963-1.204.247-.55.403-1.137.461-1.737.084-.801.122-1.607.115-2.412v-5.128h1.383v10.982h2.608v-13.5h-6.327zm-6.811 3.487h.12l.29 2.757.253 2.151h-1.225l.271-2.151.29-2.757zm1.46 10.013h2.766l-2.59-13.5h-3.226l-2.567 13.5h2.802l.41-2.638h1.982l.424 2.638zm-5.53-10.982v-2.518H42.31v2.518h2.083v10.982h2.645v-10.982h2.097z" fill="#0069B4"/></g><defs><clipPath id="clip0"><path fill="#fff" transform="translate(25 16)" d="M0 0h110v114H0z"/></clipPath></defs></svg>